<?xml version="1.0" standalone="no"?>
<!DOCTYPE svg PUBLIC "-//W3C//DTD SVG 20010904//EN" "http://www.w3.org/TR/2001/REC-SVG-20010904/DTD/svg10.dtd">
<svg xmlns="http://www.w3.org/2000/svg" version="1.0" width="192.000000pt" height="262.000000pt" viewBox="0 0 192.000000 262.000000" preserveAspectRatio="xMidYMid meet">
<metadata>
Created by potrace 1.16, written by Peter Selinger 2001-2019
<meta name="Producer" content="Online-Convert"/></metadata>
<g transform="translate(0.000000,262.000000) scale(0.100000,-0.100000)" fill="currentColor" stroke="none">
<path d="M905 2483 c-238 -51 -433 -223 -566 -500 -321 -669 -117 -1611 407 -1876 111 -56 268 -73 389 -42 420 110 718 711 666 1342 -46 556 -319 982 -682 1068 -60 14 -168 18 -214 8z m213 -28 c534 -126 834 -1025 580 -1744 -120 -340 -345 -582 -587 -632 -78 -16 -223 -7 -295 19 -488 177 -749 983 -540 1670 148 489 492 769 842 687z"/>
<path d="M900 2449 c-81 -13 -224 -87 -299 -156 -165 -149 -295 -397 -351 -671 -32 -158 -43 -332 -31 -479 12 -140 49 -336 62 -327 4 2 257 5 561 6 304 0 537 4 518 8 l-35 7 33 2 c21 1 32 6 32 16 0 8 -5 15 -11 15 -5 0 -7 -4 -4 -10 3 -5 2 -10 -4 -10 -11 0 -9 59 2 77 5 8 -3 13 -25 16 -26 3 -22 4 15 5 37 2 47 6 48 20 0 14 2 14 9 -3 5 -12 9 110 9 296 l1 316 -22 -1 c-18 -1 -23 4 -22 22 0 12 -5 22 -13 22 -7 0 -13 11 -13 25 l0 25 118 0 c127 0 161 -10 127 -36 -11 -8 -19 -24 -17 -35 2 -10 -3 -21 -10 -24 -10 -4 -13 -72 -11 -346 1 -188 4 -344 7 -347 3 -3 6 33 6 80 0 59 4 88 13 92 10 5 10 7 0 12 -19 8 -16 55 5 70 16 13 16 13 0 14 -13 0 -18 8 -18 30 0 26 4 30 26 30 23 0 26 -3 22 -29 -3 -22 2 -32 23 -47 24 -15 26 -21 17 -46 -6 -15 -16 -28 -24 -28 -16 0 -19 -37 -4 -60 7 -11 10 -12 10 -2 0 16 42 12 47 -3 2 -6 -3 -20 -11 -30 -14 -19 -15 -19 -35 -1 -17 15 -24 17 -33 8 -9 -9 -8 -12 3 -12 9 0 21 -11 27 -24 9 -21 8 -27 -13 -40 -13 -9 -28 -16 -34 -16 -5 0 -8 -11 -7 -25 1 -29 11 -32 34 -8 16 16 17 15 20 -5 4 -25 19 -30 24 -8 3 13 6 13 22 1 19 -14 18 -16 -3 -75 -12 -34 -21 -66 -18 -73 2 -7 16 26 30 73 122 403 93 864 -78 1211 -133 271 -331 443 -550 479 -69 11 -98 11 -175 -1z m282 -38 c167 -65 323 -220 426 -426 l41 -80 -62 -6 c-56 -5 -58 -6 -19 -9 23 -1 48 -3 55 -4 8 -1 13 -28 15 -88 l3 -88 -53 0 c-35 0 -48 -3 -39 -9 29 -19 -89 -25 -467 -26 -329 0 -384 2 -393 15 -8 11 -12 12 -16 3 -3 -9 -35 -14 -101 -15 -83 -2 -87 -2 -29 -5 50 -3 70 -8 74 -20 4 -9 -1 -19 -10 -24 -9 -5 -13 -17 -10 -28 3 -14 -3 -21 -24 -29 -15 -6 -22 -11 -15 -11 9 -1 12 -76 12 -341 0 -296 2 -340 15 -340 9 0 15 -9 15 -25 l0 -25 -110 0 -110 0 6 24 c4 16 1 25 -10 29 -9 4 -16 16 -16 27 0 15 -7 20 -29 20 -17 0 -32 4 -35 9 -6 9 21 71 30 71 15 0 44 -22 44 -34 0 -8 10 -11 30 -8 38 5 39 22 2 22 -34 0 -52 16 -52 47 0 15 6 23 17 23 13 0 9 7 -15 29 -39 37 -40 57 -4 78 16 9 34 29 40 45 5 15 17 28 25 28 12 0 14 29 16 165 1 141 -1 165 -14 165 -14 0 -19 11 -16 38 1 6 -5 12 -14 12 -9 0 -15 9 -15 25 0 18 -5 25 -18 25 -17 0 -18 9 -14 113 3 98 7 120 33 177 85 185 235 351 382 424 98 48 134 55 262 52 85 -2 123 -8 167 -25z m4 -793 c-16 -23 -46 -83 -68 -135 -13 -32 -12 -28 -22 -70 -4 -18 -12 -33 -18 -33 -6 0 -9 -3 -5 -6 8 -8 -14 -51 -42 -83 -24 -28 -28 -61 -6 -61 12 0 15 -14 15 -66 l0 -65 -27 3 c-26 3 -28 6 -28 53 0 44 3 50 25 56 23 7 24 7 3 8 -14 1 -21 6 -17 14 2 7 6 47 8 88 6 99 11 132 25 137 6 2 11 14 11 27 0 37 56 99 124 137 40 22 41 22 22 -4z m92 -570 l-3 -23 -240 0 -240 0 -3 23 -3 22 246 0 246 0 -3 -22z m2 -63 l0 -25 -232 2 c-231 3 -233 3 -236 25 l-3 22 235 1 236 0 0 -25z m0 -65 l0 -30 -222 2 -223 3 -3 27 -3 27 225 1 226 1 0 -31z"/>
<path d="M735 1790 l0 -50 62 0 c58 0 61 1 57 23 l-5 22 12 -22 c16 -30 23 -29 39 5 7 16 14 22 17 14 3 -7 -1 -19 -7 -27 -11 -13 -8 -15 18 -15 29 0 30 1 22 35 -4 20 -4 38 1 41 5 3 7 10 4 15 -11 17 -35 9 -47 -16 -14 -32 -22 -31 -37 1 -7 16 -18 24 -28 22 -14 -3 -17 -12 -15 -48 2 -35 0 -42 -8 -30 -9 11 -13 12 -17 3 -7 -18 -33 -16 -33 2 0 8 5 14 11 13 6 -2 14 3 16 10 3 6 -2 12 -11 12 -9 0 -16 5 -16 11 0 6 9 9 20 6 13 -3 20 0 20 9 0 10 -12 14 -37 14 l-38 0 0 -50z"/>
<path d="M498 740 c-3 -31 0 -40 12 -40 12 0 15 8 12 38 -3 29 -1 34 8 26 7 -7 13 -23 13 -37 l2 -26 198 -1 c134 0 196 3 192 10 -3 5 -1 10 4 10 6 0 11 -5 11 -11 0 -6 19 -9 48 -7 40 3 47 6 50 26 4 29 -14 52 -42 52 -19 0 -21 -4 -18 -37 4 -33 3 -36 -11 -25 -8 7 -18 24 -21 37 -9 35 -21 31 -39 -12 -13 -34 -15 -35 -16 -12 -1 31 -18 49 -47 49 -18 0 -21 -5 -18 -30 2 -16 -1 -32 -6 -35 -6 -4 -10 9 -10 29 0 48 -20 46 -21 -1 0 -21 -3 -31 -6 -23 -3 8 -15 23 -27 33 l-21 19 23 -5 c12 -3 20 -1 16 4 -8 14 -30 11 -44 -5 -9 -12 -7 -17 9 -28 12 -7 21 -16 21 -19 0 -11 -50 -5 -51 6 -1 6 -2 19 -3 30 0 13 -9 21 -23 23 -20 3 -23 -1 -23 -30 0 -27 -4 -34 -20 -35 -11 -1 -20 2 -20 8 0 5 5 9 10 9 6 0 10 5 10 11 0 5 -4 7 -10 4 -5 -3 -10 1 -10 10 0 11 5 15 15 11 8 -3 15 -1 15 4 0 6 -17 10 -38 10 -32 0 -40 -4 -49 -27 l-10 -28 -8 28 c-5 19 -14 27 -30 27 -19 0 -23 -6 -27 -40z"/>
<path d="M1284 766 c-3 -8 -4 -25 -2 -38 3 -23 5 -23 141 -25 88 -2 136 1 132 7 -3 6 1 10 10 10 9 0 13 -4 10 -10 -4 -6 12 -10 39 -10 27 0 46 5 46 11 0 6 -7 9 -15 5 -12 -4 -15 3 -15 29 0 47 -18 45 -22 -2 l-3 -38 -21 39 -21 40 -21 -40 -21 -39 -1 38 c0 39 -20 53 -21 15 l0 -23 -11 23 c-17 34 -39 29 -31 -8 4 -20 2 -30 -7 -30 -7 0 -10 6 -7 14 8 21 -16 49 -39 44 -13 -2 -21 -14 -25 -38 l-6 -35 -2 38 c-1 47 -21 49 -21 1 0 -31 -3 -35 -22 -32 -17 2 -24 11 -26 31 -3 25 -1 28 17 22 12 -4 21 -2 21 4 0 16 -50 13 -56 -3z"/>
<path d="M290 760 c0 -18 49 -139 85 -212 59 -117 123 -204 212 -289 259 -244 579 -238 835 16 38 39 94 107 124 151 52 78 130 232 121 240 -4 4 -67 -117 -67 -130 0 -9 -62 -106 -81 -127 -8 -8 -19 -24 -25 -34 -11 -19 -27 -20 -494 -23 -490 -2 -519 0 -506 34 3 7 -2 15 -10 18 -19 7 -94 125 -94 148 0 10 -4 18 -9 18 -10 0 -47 83 -68 152 -13 45 -23 61 -23 38z"/>
<path d="M1077 623 c-12 -11 -7 -71 6 -75 18 -6 247 -1 254 6 4 3 0 6 -8 6 -8 0 -21 16 -28 35 -7 19 -16 35 -21 35 -5 0 -14 -16 -20 -35 -15 -46 -33 -45 -28 0 3 28 1 35 -11 33 -8 -2 -18 -14 -22 -28 l-6 -25 -13 28 c-16 34 -39 36 -33 3 3 -13 0 -32 -7 -43 -10 -16 -11 -16 -6 0 13 41 -31 87 -57 60z"/>
<path d="M955 435 c-1 -43 14 -60 30 -35 3 6 1 10 -4 10 -6 0 -11 10 -10 23 0 19 2 18 16 -9 l16 -32 186 0 c102 0 191 3 198 5 19 7 16 24 -9 51 -18 20 -19 24 -5 19 9 -4 17 -2 17 3 0 13 -37 13 -45 -1 -4 -5 0 -18 9 -28 21 -24 20 -28 -7 -28 -17 0 -27 9 -38 36 l-16 36 -18 -37 c-27 -54 -40 -50 -35 10 1 17 -4 22 -24 22 -23 0 -26 -4 -26 -34 0 -19 -5 -38 -11 -42 -8 -5 -10 6 -7 35 2 22 0 41 -4 41 -4 0 -8 -15 -10 -32 -2 -18 -7 -33 -13 -33 -5 0 -11 15 -13 33 -5 47 -22 39 -23 -10 -1 -24 -3 -34 -6 -23 -2 11 -6 30 -9 43 -3 16 -11 22 -32 22 -26 0 -28 -3 -24 -29 2 -16 -1 -32 -7 -35 -7 -5 -11 5 -11 28 0 20 -4 36 -9 36 -4 0 -6 -12 -4 -27 4 -27 4 -27 -11 -9 -9 11 -16 23 -16 28 0 4 -6 8 -12 8 -9 0 -13 -16 -13 -45z"/>
</g>
</svg>
